HIERARCHY
ROOT reference
{
  OFFSET -65.3212 -1.93545 -120.338
  CHANNELS 6 Xposition Yposition Zposition Zrotation Xrotation Yrotation
  JOINT Hips
  {
    OFFSET 0 78.7191 0
    CHANNELS 3 Zrotation Xrotation Yrotation
    JOINT Chest
    {
      OFFSET 0 8.7983 -4.7612
      CHANNELS 3 Zrotation Xrotation Yrotation
      JOINT Chest2
      {
        OFFSET 0 8.0291 0.4195
        CHANNELS 3 Zrotation Xrotation Yrotation
        JOINT Chest3
        {
          OFFSET 0 9.9351 -2.2114
          CHANNELS 3 Zrotation Xrotation Yrotation
          JOINT Neck
          {
            OFFSET 0 22.3885 -0.4656
            CHANNELS 3 Zrotation Xrotation Yrotation
            JOINT Head
            {
              OFFSET -0.0001 12.643 3.4389
              CHANNELS 3 Zrotation Xrotation Yrotation
              End Site
              {
                OFFSET 0.0001 17.6655 0.5274
              }
            }
          }
          JOINT LeftCollar
          {
            OFFSET 2.2603 21.606 7.4023
            CHANNELS 3 Zrotation Xrotation Yrotation
            JOINT LeftShoulder
            {
              OFFSET 13.5163 -1.1332 -5.0146
              CHANNELS 3 Zrotation Xrotation Yrotation
              JOINT LeftElbow
              {
                OFFSET -0.0995 -28.05 -0.2431
                CHANNELS 3 Zrotation Xrotation Yrotation
                JOINT LeftWrist
                {
                  OFFSET 0.0679 -23.3996 -0.1402
                  CHANNELS 3 Zrotation Xrotation Yrotation
                  JOINT LeftFinger1
                  {
                    OFFSET 0.7932 -9.069 2.5189
                    CHANNELS 3 Zrotation Xrotation Yrotation
                    JOINT LeftFinger11
                    {
                      OFFSET -0.8272 -3.3923 0.5977
                      CHANNELS 3 Zrotation Xrotation Yrotation
                      JOINT LeftFinger12
                      {
                        OFFSET -0.5649 -2.3158 0.4082
                        CHANNELS 3 Zrotation Xrotation Yrotation
                        End Site
                        {
                          OFFSET -0.4919 -1.6479 0.2673
                        }
                      }
                    }
                  }
                  JOINT LeftFinger2
                  {
                    OFFSET 0.9159 -9.2044 0.2193
                    CHANNELS 3 Zrotation Xrotation Yrotation
                    JOINT LeftFinger21
                    {
                      OFFSET 0.0117 -4.1944 -0.0248
                      CHANNELS 3 Zrotation Xrotation Yrotation
                      JOINT LeftFinger22
                      {
                        OFFSET 0.0071 -2.3249 -0.0142
                        CHANNELS 3 Zrotation Xrotation Yrotation
                        End Site
                        {
                          OFFSET -0.1475 -2.0882 0.0028
                        }
                      }
                    }
                  }
                  JOINT LeftFinger3
                  {
                    OFFSET 0.6113 -8.7231 -2.0637
                    CHANNELS 3 Zrotation Xrotation Yrotation
                    JOINT LeftFinger31
                    {
                      OFFSET -0.1927 -3.8059 -0.2383
                      CHANNELS 3 Zrotation Xrotation Yrotation
                      JOINT LeftFinger32
                      {
                        OFFSET -0.1091 -2.1688 -0.1362
                        CHANNELS 3 Zrotation Xrotation Yrotation
                        End Site
                        {
                          OFFSET -0.2358 -1.9176 -0.0906
                        }
                      }
                    }
                  }
                  JOINT LeftFinger4
                  {
                    OFFSET -0.6151 -8.0947 -3.5641
                    CHANNELS 3 Zrotation Xrotation Yrotation
                    JOINT LeftFinger41
                    {
                      OFFSET -0.4882 -2.341 -0.6462
                      CHANNELS 3 Zrotation Xrotation Yrotation
                      JOINT LeftFinger42
                      {
                        OFFSET -0.3575 -1.7167 -0.4742
                        CHANNELS 3 Zrotation Xrotation Yrotation
                        End Site
                        {
                          OFFSET -0.4187 -1.5237 -0.3496
                        }
                      }
                    }
                  }
                  JOINT LeftFinger0
                  {
                    OFFSET -1.42 -1.8761 1.4223
                    CHANNELS 3 Zrotation Xrotation Yrotation
                    JOINT LeftFinger01
                    {
                      OFFSET -1.1471 -3.4929 2.6334
                      CHANNELS 3 Zrotation Xrotation Yrotation
                      JOINT LeftFinger02
                      {
                        OFFSET -0.823 -2.3 1.6571
                        CHANNELS 3 Zrotation Xrotation Yrotation
                        End Site
                        {
                          OFFSET -0.5822 -1.6914 1.1582
                        }
                      }
                    }
                  }
                }
              }
            }
          }
          JOINT RightCollar
          {
            OFFSET -2.2603 21.606 7.4023
            CHANNELS 3 Zrotation Xrotation Yrotation
            JOINT RightShoulder
            {
              OFFSET -13.5187 -1.1334 -5.0155
              CHANNELS 3 Zrotation Xrotation Yrotation
              JOINT RightElbow
              {
                OFFSET 0.0994 -28.0499 -0.2431
                CHANNELS 3 Zrotation Xrotation Yrotation
                JOINT RightWrist
                {
                  OFFSET -0.0679 -23.3996 -0.1402
                  CHANNELS 3 Zrotation Xrotation Yrotation
                  JOINT RightFinger1
                  {
                    OFFSET -0.7932 -9.0691 2.5189
                    CHANNELS 3 Zrotation Xrotation Yrotation
                    JOINT RightFinger11
                    {
                      OFFSET 0.8272 -3.3923 0.5977
                      CHANNELS 3 Zrotation Xrotation Yrotation
                      JOINT RightFinger12
                      {
                        OFFSET 0.565 -2.3158 0.4082
                        CHANNELS 3 Zrotation Xrotation Yrotation
                        End Site
                        {
                          OFFSET 0.4919 -1.6479 0.2673
                        }
                      }
                    }
                  }
                  JOINT RightFinger2
                  {
                    OFFSET -0.916 -9.2044 0.2193
                    CHANNELS 3 Zrotation Xrotation Yrotation
                    JOINT RightFinger21
                    {
                      OFFSET -0.0117 -4.1944 -0.0248
                      CHANNELS 3 Zrotation Xrotation Yrotation
                      JOINT RightFinger22
                      {
                        OFFSET -0.0071 -2.3249 -0.0142
                        CHANNELS 3 Zrotation Xrotation Yrotation
                        End Site
                        {
                          OFFSET 0.1475 -2.0882 0.0028
                        }
                      }
                    }
                  }
                  JOINT RightFinger3
                  {
                    OFFSET -0.6113 -8.7231 -2.0637
                    CHANNELS 3 Zrotation Xrotation Yrotation
                    JOINT RightFinger31
                    {
                      OFFSET 0.1927 -3.8059 -0.2383
                      CHANNELS 3 Zrotation Xrotation Yrotation
                      JOINT RightFinger32
                      {
                        OFFSET 0.1091 -2.1688 -0.1362
                        CHANNELS 3 Zrotation Xrotation Yrotation
                        End Site
                        {
                          OFFSET 0.2358 -1.9176 -0.0906
                        }
                      }
                    }
                  }
                  JOINT RightFinger4
                  {
                    OFFSET 0.6151 -8.0947 -3.564
                    CHANNELS 3 Zrotation Xrotation Yrotation
                    JOINT RightFinger41
                    {
                      OFFSET 0.4882 -2.341 -0.6462
                      CHANNELS 3 Zrotation Xrotation Yrotation
                      JOINT RightFinger42
                      {
                        OFFSET 0.3574 -1.7166 -0.4742
                        CHANNELS 3 Zrotation Xrotation Yrotation
                        End Site
                        {
                          OFFSET 0.4187 -1.5237 -0.3496
                        }
                      }
                    }
                  }
                  JOINT RightFinger0
                  {
                    OFFSET 1.4199 -1.8761 1.4221
                    CHANNELS 3 Zrotation Xrotation Yrotation
                    JOINT RightFinger01
                    {
                      OFFSET 1.1472 -3.4929 2.6336
                      CHANNELS 3 Zrotation Xrotation Yrotation
                      JOINT RightFinger02
                      {
                        OFFSET 0.8229 -2.3 1.6571
                        CHANNELS 3 Zrotation Xrotation Yrotation
                        End Site
                        {
                          OFFSET 0.5822 -1.6914 1.1582
                        }
                      }
                    }
                  }
                }
              }
            }
          }
        }
      }
    }
    JOINT RightHip
    {
      OFFSET -9.412 3.9771 -0.7758
      CHANNELS 3 Zrotation Xrotation Yrotation
      JOINT RightKnee
      {
        OFFSET -0.7531 -40.938 0
        CHANNELS 3 Zrotation Xrotation Yrotation
        JOINT RightAnkle
        {
          OFFSET 0 -40.1986 0
          CHANNELS 3 Zrotation Xrotation Yrotation
          JOINT RightToe
          {
            OFFSET 0 -4.4182 9.239
            CHANNELS 3 Zrotation Xrotation Yrotation
            End Site
            {
              OFFSET 0 0 6.1981
            }
          }
        }
      }
    }
    JOINT LeftHip
    {
      OFFSET 9.4119 3.9773 -0.7758
      CHANNELS 3 Zrotation Xrotation Yrotation
      JOINT LeftKnee
      {
        OFFSET 0.7532 -40.9383 0
        CHANNELS 3 Zrotation Xrotation Yrotation
        JOINT LeftAnkle
        {
          OFFSET 0 -40.1986 0
          CHANNELS 3 Zrotation Xrotation Yrotation
          JOINT LeftToe
          {
            OFFSET 0 -4.4182 9.239
            CHANNELS 3 Zrotation Xrotation Yrotation
            End Site
            {
              OFFSET 0 0 6.1981
            }
          }
        }
      }
    }
  }
}
MOTION
Frames:	5
Frame Time:	0.0333333
-27.6383 -5.31911 14.4165 0 0 -0 9.34331 19.0823 -3.8368 -1.17119 1.70139 -0.98795 -2.31438 3.42237 -1.94218 -2.31439 3.42239 -1.94219 -13.8648 -18.2632 25.8455 11.0435 -15.3096 19.9231 -0.318975 3.41953 -15.3939 50.3837 5.33647 14.4447 -94.6097 -22.2233 -55.162 12.9458 -36.2508 -20.7837 6.12306 -3.93054 0.685881 -0.219618 -2.78719 -1.15873 6.09618 -3.755 0.526442 6.25244 -3.77809 1.26059 -0.472065 -2.67551 0.479013 6.19223 -3.81433 0.813754 6.19257 -4.09484 0.990719 -0.479112 -3.01316 0.966329 6.13673 -4.13715 1.02996 6.30593 -4.00765 1.15822 -0.0832964 -2.73643 2.26639 6.19584 -4.08728 1.23084 -0.214764 -3.52168 1.38151 -1.21264 -0.607978 0.232314 -1.71775 -2.29668 0.441985 -11.7113 -0.0945429 14.2639 -27.8238 -15.4931 -4.88905 68.3318 -19.3201 52.0559 -15.1236 -20.1279 6.28633 16.065 10.0457 0.231578 12.2725 4.13478 -0.642561 13.7989 4.63449 -0.783738 12.7897 5.17797 1.54956 15.0041 5.08402 -0.310889 12.2606 4.16608 -0.154788 11.5039 4.29336 -0.025582 14.5792 5.65619 0.102808 11.8708 4.60875 0.193336 11.9857 3.46305 -0.0830521 13.1775 5.00272 0.547637 12.0277 4.55017 0.520632 -2.28703 8.65502 2.56241 -0.818039 1.85892 0.597104 -2.36842 5.23582 1.76131 -5.63773 -49.2293 11.3692 9.6359 41.4898 -7.12309 -1.04525 -12.5411 1.64006 -0.586044 -4.13866 0.215939 -6.46348 -41.8185 -16.5155 -0.571276 16.4919 -2.29122 -7.58103 2.36317 -1.77008 -0.00911722 0.0133548 -9.85212e-006 
-27.4604 -5.58274 14.2472 0 0 -0 10.6152 19.6185 -3.32782 -1.3466 1.07509 -0.588665 -2.6828 2.16365 -1.1522 -2.6828 2.16365 -1.1522 -13.9627 -17.8312 24.8926 12.4429 -15.8042 20.8194 0.303466 3.42972 -15.8184 53.5768 5.24217 14.7545 -102.304 -23.5252 -55.4154 8.10891 -38.1219 -26.0486 6.24788 -3.94514 0.663766 -0.225863 -2.8555 -1.19224 6.22246 -3.83174 0.541497 6.32723 -3.8315 1.18227 -0.479249 -2.71876 0.483907 6.30103 -3.88007 0.831646 6.22125 -4.14169 1.0138 -0.483029 -3.04005 0.97309 6.20418 -4.18158 1.04363 6.30113 -4.05814 1.19532 -0.0834771 -2.75242 2.27808 6.22185 -4.10772 1.24846 -0.563731 -3.30461 1.18901 -1.22096 -0.60558 0.233156 -1.74719 -2.33633 0.448978 -11.2531 -0.0266895 12.0459 -30.2957 -10.8306 -6.69537 70.9991 -19.8373 52.2545 -13.8486 -20.3438 4.04193 13.7506 8.0128 0.102882 10.839 3.66178 -0.522137 11.9991 4.04507 -0.618735 11.2489 4.44047 1.16244 12.9047 4.38247 -0.187372 10.8481 3.69006 -0.0915507 10.2529 3.86416 0.0596048 12.5607 4.87645 0.174603 10.5303 4.0884 0.219459 10.6127 3.24098 0.0762249 11.5143 4.36674 0.542189 10.6485 4.03585 0.532305 -1.9567 6.95346 2.0454 -0.932752 2.1154 0.68186 -2.03067 4.51666 1.50434 -9.26902 -50.764 7.92373 11.1397 43.1963 -8.17621 -1.34516 -13.3537 2.9096 -0.669735 -4.73687 0.243742 -8.68848 -42.4809 -18.4761 -0.568617 16.5472 -2.2221 -7.71455 2.51566 -1.55532 -0.000988265 -0.0479522 5.04717e-007 
-27.3137 -5.887 14.0897 0 0 -0 11.4461 19.977 -2.50728 -1.4284 0.474072 -0.19087 -2.85536 0.952748 -0.369881 -2.85536 0.952753 -0.369881 -13.9033 -16.7834 23.8469 13.6363 -16.333 21.5294 0.647793 3.13494 -16.2797 58.5799 4.97292 15.7101 -110.85 -25.345 -55.7171 0.828369 -40.7915 -32.5795 6.39411 -3.98731 0.646936 -0.23326 -2.93395 -1.23108 6.38663 -3.93143 0.56135 6.43397 -3.90753 1.11064 -0.488298 -2.77373 0.489995 6.40988 -3.94579 0.849672 6.29136 -4.20941 1.0416 -0.489434 -3.08435 0.984169 6.27167 -4.22602 1.05738 6.34439 -4.12653 1.23602 -0.0839734 -2.78692 2.30333 6.3005 -4.15826 1.26695 -0.910544 -3.1017 1.00336 -1.239 -0.60035 0.234996 -1.77661 -2.37597 0.455986 -10.881 0.041799 9.85581 -32.3111 -6.33015 -8.26185 71.8422 -20.3615 52.1688 -13.764 -20.3176 -0.485918 11.356 5.98687 -0.0110629 9.3295 3.16002 -0.40809 10.1233 3.4246 -0.466506 9.62273 3.6761 0.777381 10.7319 3.65088 -0.0867753 9.35016 3.18333 -0.037368 8.91271 3.38966 0.128934 10.4678 4.06447 0.219865 9.11327 3.53744 0.233802 9.15017 2.97367 0.214956 9.76916 3.69941 0.516565 9.18686 3.47419 0.498296 -1.65473 5.31627 1.57688 -1.03022 2.33249 0.75401 -1.69645 3.79603 1.25189 -12.7156 -51.8742 4.35921 12.5529 44.8388 -9.25754 -1.67301 -14.1615 4.03928 -0.680453 -4.81354 0.247247 -10.765 -43.2548 -20.21 -0.55289 17.333 -2.21212 -7.72584 2.16596 -1.7223 0.0349442 -0.317333 6.10036e-005 
-27.1836 -6.19539 14.0267 0 0 -0 11.853 20.0627 -1.41391 -1.42079 -0.0987377 0.143825 -2.84132 -0.200999 0.285156 -2.84133 -0.201002 0.285157 -13.7595 -15.2011 22.8826 14.8345 -16.8686 22.3399 1.19139 2.63679 -16.6997 65.1863 4.60651 17.5388 -119.636 -27.6113 -56.9267 -7.0727 -44.3002 -37.6671 6.55985 -4.05488 0.635785 -0.240681 -3.01226 -1.27019 6.55085 -4.03106 0.581507 6.56948 -4.00341 1.04589 -0.499286 -2.83988 0.497122 6.5652 -4.04761 0.887051 6.39863 -4.29597 1.07515 -0.498303 -3.14578 0.999366 6.38968 -4.30367 1.08157 6.433 -4.21652 1.27962 -0.0846809 -2.83791 2.34044 6.42235 -4.23575 1.29359 -1.25065 -2.90861 0.825329 -1.257 -0.595076 0.236779 -1.81689 -2.43026 0.465507 -10.745 0.105428 7.80828 -33.8542 -2.78752 -9.65442 70.5513 -20.844 51.8199 -13.8557 -19.0567 -5.21512 9.06146 4.1688 -0.10402 7.85344 2.6661 -0.309371 8.31368 2.8207 -0.338901 8.03487 2.95028 0.435475 8.65644 2.94814 -0.0166473 7.87783 2.68364 0.00297094 7.58582 2.90825 0.176657 8.46577 3.28584 0.235327 7.69714 2.98626 0.234471 7.71555 2.67089 0.314866 8.07728 3.05313 0.472283 7.72568 2.91355 0.450021 -1.40583 3.94458 1.20065 -1.10478 2.49801 0.809342 -1.42448 3.20296 1.04778 -15.5273 -52.3953 1.33004 13.66 46.3461 -10.1841 -1.89235 -15.022 4.66896 -0.644268 -4.55458 0.235366 -12.596 -43.8599 -21.6897 -0.539183 18.4755 -2.26798 -7.67014 1.9498 -2.17595 0.0957612 -0.772568 0.000593382 
-27.0155 -6.43247 14.0828 0 0 -0 11.996 19.8344 -0.309587 -1.34273 -0.636812 0.414433 -2.68108 -1.28316 0.813909 -2.68108 -1.28316 0.813909 -13.6006 -13.2517 22.2152 16.1355 -17.3597 23.398 2.31295 2.043 -16.9666 72.5807 4.26625 20.2233 -127.369 -30.0819 -59.7172 -15.9748 -49.1707 -46.9345 6.74481 -4.1477 0.630744 -0.24885 -3.09814 -1.31349 6.75542 -4.15507 0.606969 6.7334 -4.11866 0.988392 -0.512173 -2.91735 0.505236 6.72059 -4.1493 0.924702 6.54242 -4.40141 1.11465 -0.509623 -3.22482 1.0187 6.53545 -4.40933 1.13814 6.56734 -4.33028 1.326 -0.0857958 -2.905 2.38918 6.54423 -4.31321 1.3204 -1.58197 -2.72413 0.655621 -1.27908 -0.588689 0.238968 -1.85717 -2.48456 0.475013 -10.8112 0.161656 6.02478 -35.0028 -0.381022 -10.9435 67.0769 -21.2783 51.1081 -13.9206 -17.165 -7.62471 7.03578 2.75934 -0.160078 6.51212 2.21479 -0.230699 6.7038 2.27967 -0.241426 6.59535 2.32469 0.18427 6.84034 2.33087 0.0237746 6.53493 2.22872 0.0304884 6.35825 2.45291 0.200579 6.71034 2.60245 0.226429 6.40472 2.48316 0.223194 6.41043 2.33848 0.361934 6.56241 2.47566 0.416467 6.4319 2.42621 0.411234 -1.24129 3.03837 0.960034 -1.15091 2.60023 0.843591 -1.24677 2.81224 0.915088 -17.2799 -52.3448 -0.320188 14.3321 47.5216 -10.7866 -1.85297 -15.8059 4.57764 -0.666041 -4.71021 0.242528 -14.0836 -44.0533 -22.9262 -0.533489 19.5986 -2.31691 -7.53064 1.5181 -2.70864 0.156573 -1.22778 0.00158732 
